<?xml version="1.0" encoding="UTF-8"?>
<svg width="752pt" height="752pt" version="1.1" viewBox="0 0 752 752" xmlns="http://www.w3.org/2000/svg">
 <path d="m467.88 331.01c2.3672-51.148-38.832-92.348-91.875-92.348s-94.242 41.203-91.875 92.348c1.8945 51.145 43.098 92.348 91.875 92.348 48.781 0 89.98-41.203 91.875-92.348zm46.41 181.38v-8.0508c0-36.465-29.363-65.828-65.828-65.828h-144.44c-36.465 0-65.828 29.363-65.828 65.828v8.0508c35.047 35.516 83.824 57.773 137.81 57.773s102.77-22.258 138.29-57.773zm-138.29 57.773c-107.03 0-194.17-87.137-194.17-194.17 0-107.03 87.141-194.17 194.17-194.17s194.17 87.141 194.17 194.17c0 107.03-87.137 194.17-194.17 194.17zm0 18.945c117.92 0 213.11-95.191 213.11-213.11s-95.191-213.11-213.11-213.11-213.11 95.188-213.11 213.11 95.188 213.11 213.11 213.11z" fill="#fff"/>
</svg>
